<svg width="456" height="456" viewBox="0 0 456 456" fill="none" xmlns="http://www.w3.org/2000/svg">
<path fill-rule="evenodd" clip-rule="evenodd" d="M375 0C388.807 0 400 11.1929 400 25V226.753C433.749 249.136 456 287.47 456 331C456 400.036 400.036 456 331 456C287.47 456 249.136 433.749 226.753 400H25C11.1929 400 0 388.807 0 375V25C0 11.1929 11.1929 0 25 0H375ZM213.964 375C209.822 363.988 207.19 352.238 206.319 340H85C71.1929 340 60 328.807 60 315V85C60 71.1929 71.1929 60 85 60H315C328.807 60 340 71.1929 340 85V206.319C352.238 207.19 363.988 209.822 375 213.964V50C375 36.1929 363.807 25 350 25H50C36.1929 25 25 36.1929 25 50V350C25 363.807 36.1929 375 50 375H213.964ZM280.675 216.544L258.118 206.439L212.949 186.205L100.93 313.304C103.742 314.399 106.801 315 110 315H207.014C212.659 270.823 241.363 233.854 280.675 216.544ZM315 199.048V110C315 96.1929 303.807 85 290 85H110C96.1929 85 85 96.1929 85 110V196.526L120.027 155.289L127.423 146.583L137.782 151.398L163.052 163.143L184.5 173.112L197.747 158.082L205.051 149.795L215.132 154.311L270.382 179.061L315 199.048ZM85 242.865V286.006L163.816 196.581L150.407 190.348L135.496 183.417L85 242.865ZM264 331C264 322.716 270.716 316 279 316H316V279C316 270.716 322.716 264 331 264C339.284 264 346 270.716 346 279V316H383C391.284 316 398 322.716 398 331C398 339.284 391.284 346 383 346H346V383C346 391.284 339.284 398 331 398C322.716 398 316 391.284 316 383V346H279C270.716 346 264 339.284 264 331ZM431 331C431 386.228 386.228 431 331 431C275.772 431 231 386.228 231 331C231 275.772 275.772 231 331 231C386.228 231 431 275.772 431 331Z" fill="#96F2FF"/>
</svg>

